<mxfile host="app.diagrams.net" modified="2023-02-02T20:48:33.833Z" agent="5.0 (Windows NT 10.0; Win64; x64) AppleWebKit/537.36 (KHTML, like Gecko) Chrome/109.0.0.0 Safari/537.36" etag="zxVcwwncUR1oypc3m117" version="20.8.16" type="github">
  <diagram name="Page-1" id="5R5ZKOjUSCBd4hBbSXsC">
    <mxGraphModel dx="1053" dy="558" grid="1" gridSize="10" guides="1" tooltips="1" connect="1" arrows="1" fold="1" page="1" pageScale="1" pageWidth="850" pageHeight="1100" math="0" shadow="0">
      <root>
        <mxCell id="0" />
        <mxCell id="1" parent="0" />
        <mxCell id="VBgL9rYQi08MCeEn3KY0-2" value="" style="ellipse;html=1;shape=startState;fillColor=#000000;strokeColor=#ff0000;" vertex="1" parent="1">
          <mxGeometry x="410" y="30" width="30" height="30" as="geometry" />
        </mxCell>
        <mxCell id="VBgL9rYQi08MCeEn3KY0-3" value="" style="edgeStyle=orthogonalEdgeStyle;html=1;verticalAlign=bottom;endArrow=open;endSize=8;strokeColor=#ff0000;rounded=0;entryX=0.503;entryY=-0.017;entryDx=0;entryDy=0;entryPerimeter=0;" edge="1" source="VBgL9rYQi08MCeEn3KY0-2" parent="1" target="VBgL9rYQi08MCeEn3KY0-5">
          <mxGeometry relative="1" as="geometry">
            <mxPoint x="425" y="130" as="targetPoint" />
          </mxGeometry>
        </mxCell>
        <mxCell id="VBgL9rYQi08MCeEn3KY0-5" value="check up" style="shape=umlFrame;whiteSpace=wrap;html=1;width=120;height=30;" vertex="1" parent="1">
          <mxGeometry x="260" y="130" width="330" height="210" as="geometry" />
        </mxCell>
        <mxCell id="VBgL9rYQi08MCeEn3KY0-32" style="edgeStyle=orthogonalEdgeStyle;rounded=0;orthogonalLoop=1;jettySize=auto;html=1;exitX=0;exitY=0.5;exitDx=0;exitDy=0;entryX=0.537;entryY=-0.06;entryDx=0;entryDy=0;entryPerimeter=0;strokeColor=default;" edge="1" parent="1" source="VBgL9rYQi08MCeEn3KY0-9" target="VBgL9rYQi08MCeEn3KY0-30">
          <mxGeometry relative="1" as="geometry" />
        </mxCell>
        <mxCell id="VBgL9rYQi08MCeEn3KY0-9" value="" style="rhombus;whiteSpace=wrap;html=1;fillColor=#1ba1e2;fontColor=#ffffff;strokeColor=#006EAF;" vertex="1" parent="1">
          <mxGeometry x="380" y="410" width="80" height="80" as="geometry" />
        </mxCell>
        <mxCell id="VBgL9rYQi08MCeEn3KY0-11" value="" style="endArrow=classic;html=1;rounded=0;exitX=0.479;exitY=1.008;exitDx=0;exitDy=0;exitPerimeter=0;entryX=0.5;entryY=0;entryDx=0;entryDy=0;" edge="1" parent="1" source="VBgL9rYQi08MCeEn3KY0-5" target="VBgL9rYQi08MCeEn3KY0-9">
          <mxGeometry width="50" height="50" relative="1" as="geometry">
            <mxPoint x="400" y="320" as="sourcePoint" />
            <mxPoint x="450" y="270" as="targetPoint" />
          </mxGeometry>
        </mxCell>
        <mxCell id="VBgL9rYQi08MCeEn3KY0-12" value="" style="verticalLabelPosition=bottom;verticalAlign=top;html=1;shape=mxgraph.basic.rect;fillColor2=none;strokeWidth=1;size=20;indent=5;" vertex="1" parent="1">
          <mxGeometry x="280" y="175" width="100" height="45" as="geometry" />
        </mxCell>
        <mxCell id="VBgL9rYQi08MCeEn3KY0-13" value="" style="verticalLabelPosition=bottom;verticalAlign=top;html=1;shape=mxgraph.basic.rect;fillColor2=none;strokeWidth=1;size=20;indent=5;" vertex="1" parent="1">
          <mxGeometry x="425" y="175" width="100" height="45" as="geometry" />
        </mxCell>
        <mxCell id="VBgL9rYQi08MCeEn3KY0-17" value="" style="html=1;points=[];perimeter=orthogonalPerimeter;fillColor=#1ba1e2;fontColor=#ffffff;strokeColor=#006EAF;" vertex="1" parent="1">
          <mxGeometry x="470" y="240" width="10" height="80" as="geometry" />
        </mxCell>
        <mxCell id="VBgL9rYQi08MCeEn3KY0-18" value="" style="html=1;points=[];perimeter=orthogonalPerimeter;fillColor=#1ba1e2;fontColor=#ffffff;strokeColor=#006EAF;" vertex="1" parent="1">
          <mxGeometry x="325" y="240" width="10" height="80" as="geometry" />
        </mxCell>
        <mxCell id="VBgL9rYQi08MCeEn3KY0-19" value="" style="endArrow=classic;html=1;rounded=0;exitX=1;exitY=0;exitDx=0;exitDy=0;exitPerimeter=0;entryX=0.02;entryY=0;entryDx=0;entryDy=0;entryPerimeter=0;" edge="1" parent="1" source="VBgL9rYQi08MCeEn3KY0-18" target="VBgL9rYQi08MCeEn3KY0-17">
          <mxGeometry width="50" height="50" relative="1" as="geometry">
            <mxPoint x="400" y="320" as="sourcePoint" />
            <mxPoint x="450" y="270" as="targetPoint" />
          </mxGeometry>
        </mxCell>
        <mxCell id="VBgL9rYQi08MCeEn3KY0-20" value="" style="endArrow=classic;html=1;rounded=0;exitX=0.1;exitY=0.99;exitDx=0;exitDy=0;exitPerimeter=0;entryX=0.84;entryY=1;entryDx=0;entryDy=0;entryPerimeter=0;strokeColor=default;dashed=1;" edge="1" parent="1" source="VBgL9rYQi08MCeEn3KY0-17" target="VBgL9rYQi08MCeEn3KY0-18">
          <mxGeometry width="50" height="50" relative="1" as="geometry">
            <mxPoint x="345" y="250" as="sourcePoint" />
            <mxPoint x="480.20000000000005" y="250" as="targetPoint" />
          </mxGeometry>
        </mxCell>
        <mxCell id="VBgL9rYQi08MCeEn3KY0-21" value="" style="endArrow=classic;html=1;rounded=0;strokeColor=default;entryX=0.9;entryY=1;entryDx=0;entryDy=0;entryPerimeter=0;exitX=1;exitY=0;exitDx=0;exitDy=0;exitPerimeter=0;" edge="1" parent="1" source="VBgL9rYQi08MCeEn3KY0-17" target="VBgL9rYQi08MCeEn3KY0-17">
          <mxGeometry width="50" height="50" relative="1" as="geometry">
            <mxPoint x="400" y="320" as="sourcePoint" />
            <mxPoint x="450" y="270" as="targetPoint" />
            <Array as="points">
              <mxPoint x="520" y="240" />
              <mxPoint x="520" y="280" />
              <mxPoint x="520" y="320" />
            </Array>
          </mxGeometry>
        </mxCell>
        <mxCell id="VBgL9rYQi08MCeEn3KY0-22" value="check" style="text;html=1;strokeColor=none;fillColor=none;align=center;verticalAlign=middle;whiteSpace=wrap;rounded=0;" vertex="1" parent="1">
          <mxGeometry x="510" y="265" width="60" height="30" as="geometry" />
        </mxCell>
        <mxCell id="VBgL9rYQi08MCeEn3KY0-23" value="Valid Username" style="text;html=1;strokeColor=none;fillColor=none;align=center;verticalAlign=middle;whiteSpace=wrap;rounded=0;" vertex="1" parent="1">
          <mxGeometry x="300" y="183" width="60" height="30" as="geometry" />
        </mxCell>
        <mxCell id="VBgL9rYQi08MCeEn3KY0-24" value="Valid password" style="text;html=1;strokeColor=none;fillColor=none;align=center;verticalAlign=middle;whiteSpace=wrap;rounded=0;" vertex="1" parent="1">
          <mxGeometry x="445" y="182.5" width="60" height="30" as="geometry" />
        </mxCell>
        <mxCell id="VBgL9rYQi08MCeEn3KY0-25" value="" style="endArrow=none;html=1;rounded=0;strokeColor=default;entryX=0.502;entryY=1.036;entryDx=0;entryDy=0;entryPerimeter=0;exitX=0.52;exitY=0;exitDx=0;exitDy=0;exitPerimeter=0;" edge="1" parent="1" source="VBgL9rYQi08MCeEn3KY0-18" target="VBgL9rYQi08MCeEn3KY0-12">
          <mxGeometry width="50" height="50" relative="1" as="geometry">
            <mxPoint x="400" y="310" as="sourcePoint" />
            <mxPoint x="450" y="260" as="targetPoint" />
          </mxGeometry>
        </mxCell>
        <mxCell id="VBgL9rYQi08MCeEn3KY0-27" value="" style="endArrow=none;html=1;rounded=0;strokeColor=default;entryX=0.5;entryY=0.982;entryDx=0;entryDy=0;entryPerimeter=0;exitX=0.5;exitY=0;exitDx=0;exitDy=0;exitPerimeter=0;" edge="1" parent="1" source="VBgL9rYQi08MCeEn3KY0-17" target="VBgL9rYQi08MCeEn3KY0-13">
          <mxGeometry width="50" height="50" relative="1" as="geometry">
            <mxPoint x="400" y="310" as="sourcePoint" />
            <mxPoint x="450" y="260" as="targetPoint" />
          </mxGeometry>
        </mxCell>
        <mxCell id="VBgL9rYQi08MCeEn3KY0-28" value="" style="ellipse;html=1;shape=endState;fillColor=#000000;strokeColor=#ff0000;" vertex="1" parent="1">
          <mxGeometry x="590" y="600" width="30" height="30" as="geometry" />
        </mxCell>
        <mxCell id="VBgL9rYQi08MCeEn3KY0-30" value="ref" style="shape=umlFrame;whiteSpace=wrap;html=1;width=40;height=15;" vertex="1" parent="1">
          <mxGeometry x="250" y="550" width="130" height="60" as="geometry" />
        </mxCell>
        <mxCell id="VBgL9rYQi08MCeEn3KY0-31" value="Give Access" style="text;html=1;strokeColor=none;fillColor=none;align=center;verticalAlign=middle;whiteSpace=wrap;rounded=0;" vertex="1" parent="1">
          <mxGeometry x="275" y="570" width="80" height="30" as="geometry" />
        </mxCell>
        <mxCell id="VBgL9rYQi08MCeEn3KY0-33" value="" style="endArrow=classic;html=1;rounded=0;strokeColor=default;exitX=0.537;exitY=1.007;exitDx=0;exitDy=0;exitPerimeter=0;entryX=0.5;entryY=1;entryDx=0;entryDy=0;" edge="1" parent="1" source="VBgL9rYQi08MCeEn3KY0-30" target="VBgL9rYQi08MCeEn3KY0-28">
          <mxGeometry width="50" height="50" relative="1" as="geometry">
            <mxPoint x="400" y="620" as="sourcePoint" />
            <mxPoint x="450" y="570" as="targetPoint" />
            <Array as="points">
              <mxPoint x="320" y="720" />
              <mxPoint x="605" y="720" />
            </Array>
          </mxGeometry>
        </mxCell>
        <mxCell id="VBgL9rYQi08MCeEn3KY0-35" value="" style="endArrow=classic;html=1;rounded=0;strokeColor=default;exitX=1;exitY=0.5;exitDx=0;exitDy=0;entryX=0.5;entryY=0;entryDx=0;entryDy=0;" edge="1" parent="1" source="VBgL9rYQi08MCeEn3KY0-9" target="VBgL9rYQi08MCeEn3KY0-28">
          <mxGeometry width="50" height="50" relative="1" as="geometry">
            <mxPoint x="600" y="460" as="sourcePoint" />
            <mxPoint x="650" y="410" as="targetPoint" />
            <Array as="points">
              <mxPoint x="605" y="450" />
            </Array>
          </mxGeometry>
        </mxCell>
        <mxCell id="VBgL9rYQi08MCeEn3KY0-36" value="Valid [OK]" style="text;html=1;strokeColor=none;fillColor=none;align=center;verticalAlign=middle;whiteSpace=wrap;rounded=0;" vertex="1" parent="1">
          <mxGeometry x="250" y="410" width="60" height="30" as="geometry" />
        </mxCell>
        <mxCell id="VBgL9rYQi08MCeEn3KY0-37" value="Valid [NOT OK]" style="text;html=1;strokeColor=none;fillColor=none;align=center;verticalAlign=middle;whiteSpace=wrap;rounded=0;" vertex="1" parent="1">
          <mxGeometry x="575" y="410" width="85" height="30" as="geometry" />
        </mxCell>
      </root>
    </mxGraphModel>
  </diagram>
</mxfile>
